<?xml version="1.0" standalone="no"?>
<!DOCTYPE svg PUBLIC "-//W3C//DTD SVG 20010904//EN"
 "http://www.w3.org/TR/2001/REC-SVG-20010904/DTD/svg10.dtd">
<svg version="1.0" xmlns="http://www.w3.org/2000/svg"
 width="768.000000pt" height="768.000000pt" viewBox="0 0 768.000000 768.000000"
 preserveAspectRatio="xMidYMid meet">
<metadata>
Created by potrace 1.14, written by Peter Selinger 2001-2017
</metadata>
<g transform="translate(0.000000,768.000000) scale(0.100000,-0.100000)"
fill="#000000" stroke="none">
<path d="M3260 6996 c-61 -8 -95 -19 -120 -36 -77 -54 -110 -83 -110 -95 0 -7
-4 -15 -9 -17 -15 -6 -115 -92 -149 -129 -18 -20 -46 -57 -62 -82 -28 -44 -28
-47 -11 -69 9 -13 30 -45 45 -73 16 -27 46 -68 67 -90 24 -25 48 -67 64 -110
25 -65 65 -131 89 -146 6 -4 28 -17 49 -30 20 -13 37 -29 37 -37 0 -7 13 -32
28 -55 16 -23 41 -61 57 -84 15 -24 33 -43 39 -43 6 0 29 -18 51 -40 22 -21
45 -39 51 -40 7 0 27 -20 45 -45 58 -77 124 -82 244 -20 69 36 112 44 133 23
19 -19 15 -26 -26 -47 -44 -22 -143 -100 -191 -151 -44 -46 -91 -147 -136
-290 -47 -150 -67 -191 -137 -275 -32 -38 -63 -75 -68 -82 -6 -7 -10 -19 -10
-28 0 -8 -4 -15 -8 -15 -12 0 -56 -95 -72 -153 -7 -27 -19 -51 -26 -54 -8 -3
-31 8 -51 25 -61 48 -251 172 -264 172 -10 0 -104 91 -139 137 -43 55 -120
142 -154 176 -32 32 -37 43 -34 70 7 43 31 131 39 137 9 7 39 67 39 78 0 4
-12 13 -27 20 -26 10 -25 11 14 6 28 -4 53 0 76 11 31 14 35 22 40 63 3 29 11
51 22 57 91 53 126 81 123 100 -3 23 7 23 -187 2 l-134 -14 -31 -35 c-31 -36
-64 -58 -87 -58 -17 0 29 48 53 56 27 8 22 24 -8 24 -29 0 -123 28 -142 43 -9
7 -20 3 -40 -15 -15 -14 -48 -31 -75 -38 -26 -7 -50 -17 -53 -21 -3 -5 -18 -9
-34 -9 -16 0 -41 -11 -57 -24 -16 -14 -48 -32 -71 -41 -50 -20 -57 -38 -50
-137 l5 -70 -61 -29 c-34 -16 -78 -29 -99 -29 -56 0 -97 -32 -97 -75 0 -28 -6
-37 -30 -50 -16 -9 -30 -21 -30 -28 -1 -6 -32 -37 -71 -67 -39 -30 -104 -93
-145 -140 -42 -46 -103 -107 -137 -135 -34 -29 -105 -94 -158 -146 -127 -125
-152 -177 -239 -508 -5 -19 -9 -163 -10 -320 -2 -292 1 -327 41 -402 9 -17
132 -119 143 -119 3 0 50 -18 104 -41 98 -41 142 -75 142 -108 0 -27 20 -39
79 -47 35 -4 94 -28 179 -71 426 -217 506 -260 521 -282 53 -79 100 -99 148
-66 18 13 26 13 43 3 11 -7 20 -16 20 -20 0 -8 58 -38 74 -38 15 -1 56 -36 56
-48 0 -5 15 -15 33 -22 63 -26 113 -103 102 -159 -7 -34 -8 -123 -4 -181 1
-14 -9 -43 -23 -65 -20 -32 -25 -54 -26 -107 0 -37 4 -70 9 -73 5 -4 9 -53 9
-111 0 -99 -1 -104 -21 -104 -15 0 -19 -4 -15 -16 3 -9 6 -22 6 -30 0 -8 6
-14 13 -14 6 0 22 -24 34 -53 21 -47 22 -59 14 -132 -12 -97 -21 -122 -56
-155 -15 -14 -38 -47 -52 -74 -23 -46 -26 -63 -29 -205 -3 -156 -3 -156 -28
-164 -59 -20 -85 -129 -45 -193 41 -67 113 -94 289 -109 88 -7 214 14 263 44
92 56 106 145 35 221 l-42 45 -6 157 c-3 86 -9 160 -13 164 -4 4 -7 -11 -7
-34 0 -33 -5 -45 -25 -58 -25 -16 -25 -18 -25 -161 0 -134 1 -145 18 -138 34
14 52 17 52 8 0 -19 -27 -41 -65 -54 -22 -7 -34 -14 -28 -16 7 -3 36 3 63 12
58 19 85 14 77 -15 -3 -11 -1 -18 4 -14 5 3 9 1 9 -5 0 -32 -134 -72 -236 -70
-110 2 -128 9 -132 47 -2 24 1 32 12 32 23 0 20 21 -4 27 -25 7 -26 23 -2 24
9 0 35 2 57 3 l40 2 0 139 c0 126 -2 140 -18 143 -31 6 -67 47 -67 78 0 37 26
157 45 209 8 22 14 54 15 70 0 38 25 75 50 75 19 0 40 -49 40 -92 0 -30 40
-110 70 -141 45 -46 46 -26 1 33 -42 56 -49 81 -61 220 -5 61 -3 99 7 135 23
80 32 136 32 196 1 37 6 61 16 69 12 10 14 27 8 84 -3 39 -9 73 -12 76 -4 3
-15 23 -25 46 -16 37 -16 45 -3 84 17 52 8 104 -24 134 l-22 21 21 -32 c26
-37 28 -85 6 -104 -26 -21 -93 -17 -111 6 -25 34 4 183 38 192 25 7 25 23 -1
23 -26 0 -26 30 -1 37 27 7 36 33 11 33 -11 0 -20 5 -20 10 0 6 8 10 18 10 9
0 27 18 40 41 26 45 23 62 -6 36 -22 -20 -46 -22 -60 -4 -22 26 -17 39 22 51
21 6 38 13 37 16 -1 3 5 26 13 52 10 34 11 48 2 52 -6 2 -1 5 10 5 26 1 37 33
23 64 -8 20 -9 19 -6 -6 3 -20 -2 -32 -17 -42 -27 -20 -76 -20 -76 0 0 8 -7
15 -15 15 -18 0 -18 10 -4 82 10 50 14 57 40 62 21 4 29 11 29 26 0 20 -1 20
-16 6 -19 -20 -40 -11 -23 10 8 10 8 14 0 14 -6 0 -11 9 -11 20 0 11 7 20 15
20 8 0 19 8 24 19 9 16 7 17 -14 13 -20 -3 -25 0 -25 17 0 14 6 21 19 21 24 0
31 19 31 85 0 78 18 153 40 165 10 6 33 10 50 10 55 0 118 36 140 80 11 22 33
46 49 54 51 27 55 72 9 110 -37 30 -134 62 -221 72 -56 7 -58 8 -52 32 5 22 4
24 -9 13 -25 -21 -61 -10 -61 19 0 20 6 26 28 28 34 4 35 17 1 18 -14 1 -28 5
-31 8 -12 12 16 29 44 28 23 0 28 4 28 24 0 21 -4 24 -39 24 -39 0 -39 0 -20
21 12 14 25 18 41 14 20 -5 23 -2 23 24 0 16 3 37 7 47 5 15 2 16 -30 10 -19
-4 -38 -2 -41 3 -7 10 26 21 67 21 16 0 26 4 23 8 -3 5 4 23 15 40 24 41 25
82 1 82 -9 0 -23 -9 -30 -20 -7 -11 -19 -20 -27 -20 -21 0 -19 38 3 43 9 3
-25 5 -75 6 l-93 1 0 -33 c0 -18 6 -41 13 -52 27 -41 38 -104 42 -245 2 -80 6
-154 10 -165 4 -13 -3 -32 -20 -55 -25 -35 -40 -41 -180 -76 -15 -4 -26 5 -44
32 l-24 38 22 17 c12 10 47 23 77 29 76 16 63 22 -17 9 -71 -12 -101 -27 -125
-63 -14 -23 -14 -27 2 -51 9 -14 28 -32 42 -39 14 -7 30 -28 36 -47 14 -42 74
-77 146 -86 41 -5 53 -11 60 -28 10 -26 26 -211 24 -275 -2 -73 -31 -187 -56
-220 l-23 -32 28 -49 c29 -53 33 -79 16 -127 -9 -26 -7 -39 9 -74 16 -32 20
-60 19 -111 -1 -37 -6 -67 -12 -68 -5 0 -15 20 -22 46 -9 28 -30 63 -58 91
-24 26 -46 52 -49 60 -3 8 -13 13 -23 12 -51 -4 -62 2 -65 34 -2 17 -9 33 -16
36 -11 3 -12 0 -3 -16 14 -27 14 -32 -2 -32 -7 0 -19 9 -27 20 -8 11 -22 20
-32 20 -24 0 -24 40 0 41 13 0 12 2 -5 9 -18 7 -23 17 -23 45 0 24 -9 44 -29
67 -26 29 -34 32 -92 33 -48 1 -78 9 -119 29 -30 16 -169 85 -309 154 -189 95
-264 138 -297 170 -48 47 -82 54 -111 23 -17 -18 -22 -19 -74 -7 -30 8 -64 18
-75 24 -10 5 -38 13 -62 17 -31 5 -60 21 -102 56 -54 45 -61 55 -81 121 -20
68 -21 87 -16 347 4 250 6 283 26 346 13 39 29 97 38 130 31 125 60 172 178
290 61 61 129 124 151 140 39 29 151 146 170 176 18 30 180 156 217 170 32 11
41 11 65 -2 37 -21 64 -14 101 26 28 31 117 85 139 85 5 0 15 -13 21 -28 8
-18 31 -38 67 -58 58 -30 118 -85 169 -154 17 -22 35 -46 40 -53 46 -55 116
-149 135 -182 13 -22 26 -42 30 -45 3 -3 17 -23 32 -45 15 -22 45 -65 67 -95
23 -30 48 -68 57 -85 23 -40 147 -189 198 -235 43 -39 133 -110 140 -110 5 0
165 -105 183 -120 19 -15 45 -12 135 16 85 27 191 98 204 137 3 9 9 17 14 17
4 0 27 27 51 61 24 33 73 95 109 138 146 176 172 206 184 216 23 20 58 85 76
147 47 155 64 193 103 227 35 32 39 33 64 20 14 -8 31 -25 37 -39 26 -59 124
-186 207 -270 24 -24 29 -37 29 -78 0 -54 41 -156 80 -197 20 -22 21 -27 11
-97 -14 -94 -17 -116 -35 -213 -8 -44 -15 -103 -15 -131 -1 -38 -10 -67 -35
-115 -19 -35 -37 -87 -41 -114 -4 -28 -16 -67 -26 -87 -11 -21 -19 -44 -19
-52 0 -18 -28 -63 -125 -201 -79 -112 -94 -138 -167 -285 -93 -190 -130 -294
-122 -348 10 -64 -36 -348 -105 -655 -11 -48 -27 -100 -35 -115 -21 -38 -55
-120 -63 -151 -8 -32 -8 -99 1 -253 7 -111 5 -122 -23 -220 -40 -137 -50 -211
-50 -343 1 -60 -2 -169 -6 -241 -5 -92 -4 -137 4 -152 17 -32 26 -27 40 18 6
22 20 48 31 57 12 12 21 39 26 81 4 39 12 66 21 71 13 7 13 12 -1 39 -11 21
-12 33 -5 37 6 4 8 13 5 20 -3 8 0 16 7 19 9 3 9 6 0 13 -12 9 -12 41 2 193 3
36 10 66 14 68 5 2 7 11 4 21 -3 10 0 22 5 25 6 3 8 15 5 26 -6 22 14 107 29
127 6 7 7 17 3 23 -9 14 2 60 14 60 5 0 12 -7 14 -15 3 -10 4 -9 3 2 -1 10 6
35 16 55 25 51 23 58 -8 25 -15 -16 -30 -25 -35 -20 -13 14 -26 118 -17 143
10 27 43 62 76 79 20 10 22 9 23 -11 1 -13 0 -31 -1 -41 -1 -18 0 -18 24 -2
24 16 26 23 26 89 0 83 12 133 37 152 16 13 16 14 -9 8 -29 -6 -40 9 -14 19 8
3 31 31 51 61 20 31 40 56 44 56 3 0 15 16 25 35 20 36 59 49 69 23 6 -15 71
51 93 95 13 25 11 31 -8 28 -14 -2 -9 8 27 59 19 28 31 50 25 50 -21 0 -8 21
45 75 30 30 55 57 55 60 0 3 -7 5 -16 5 -11 0 -15 6 -11 19 6 26 -20 16 -28
-10 -6 -19 -26 -25 -38 -12 -4 3 9 28 28 55 21 28 35 60 35 77 0 16 7 34 15
41 9 7 13 21 10 31 -9 28 10 31 46 6 34 -22 62 -36 271 -136 59 -28 110 -56
113 -61 3 -6 15 -10 25 -10 18 0 18 -3 -5 -53 -16 -34 -31 -53 -45 -55 -11 -2
-20 -11 -20 -21 0 -10 -12 -29 -27 -43 -16 -14 -42 -41 -59 -60 -18 -18 -48
-45 -68 -58 -20 -14 -36 -29 -36 -35 -1 -14 -36 -55 -48 -55 -12 0 -112 -93
-112 -105 0 -9 -40 -45 -50 -45 -4 0 -10 -9 -13 -20 -3 -11 -2 -20 3 -20 15 0
55 25 85 53 41 38 54 49 116 94 30 22 73 59 95 82 23 22 46 41 51 41 5 0 21
12 36 28 14 15 47 43 74 62 26 19 65 52 86 72 37 36 39 37 63 22 13 -9 24 -21
24 -27 0 -18 -174 -181 -191 -179 -16 3 -89 -82 -89 -103 0 -6 -25 -38 -55
-71 -30 -32 -68 -74 -85 -92 -16 -18 -30 -39 -30 -48 0 -8 -4 -13 -10 -9 -15
9 -50 -32 -43 -51 5 -14 1 -16 -33 -11 -21 3 -31 3 -21 1 25 -8 21 -21 -8 -28
-24 -6 -36 -26 -16 -26 5 0 13 -9 16 -21 5 -15 1 -25 -14 -35 -12 -9 -21 -24
-21 -34 0 -10 -11 -27 -25 -38 -14 -11 -25 -25 -25 -32 0 -6 -15 -30 -34 -53
-38 -48 -56 -79 -61 -109 -3 -12 -15 -37 -28 -57 -13 -20 -27 -48 -30 -64 -18
-72 -19 -81 -12 -74 13 11 35 80 29 89 -3 4 0 8 5 8 6 0 11 7 11 15 0 8 5 15
10 15 6 0 10 6 10 13 0 8 20 28 44 45 l45 32 -9 -30 c-5 -16 -16 -37 -24 -46
-9 -8 -16 -22 -16 -30 0 -8 -7 -14 -15 -14 -21 0 -19 -27 3 -39 15 -9 15 -10
-5 -11 -24 0 -30 -14 -12 -26 8 -5 6 -10 -5 -16 -22 -12 -22 -52 0 -44 9 3 18
6 20 6 2 0 4 9 4 20 0 11 5 20 10 20 13 0 13 -3 -6 -50 -9 -22 -20 -40 -25
-40 -5 0 -6 -7 -2 -16 4 -11 13 -14 31 -9 23 6 24 4 18 -22 -9 -34 -26 -54
-26 -30 0 9 -7 17 -15 17 -21 0 -19 -27 2 -39 10 -5 15 -13 11 -17 -5 -4 -3
-13 3 -20 6 -7 8 -23 4 -34 -6 -17 -12 -20 -33 -16 l-27 6 29 -24 c18 -15 24
-26 17 -30 -8 -5 -8 -13 0 -27 6 -11 7 -28 3 -37 -4 -9 -9 -35 -10 -56 -1 -21
-8 -43 -16 -47 -10 -7 -11 -11 0 -17 14 -9 6 -40 -14 -57 -14 -12 -26 -59 -17
-69 4 -3 16 3 28 14 l22 21 7 -39 c6 -43 31 -61 52 -40 7 7 21 38 31 68 10 30
24 64 31 75 11 19 13 19 44 -16 18 -20 42 -48 53 -63 11 -15 33 -42 48 -61
l28 -34 82 6 c47 4 87 12 95 20 7 7 20 13 28 13 21 0 17 17 -8 34 -12 9 -18
19 -14 23 4 4 13 0 20 -10 14 -18 46 -23 46 -7 0 10 18 9 83 -6 15 -3 34 -1
42 6 9 7 15 8 20 0 3 -5 15 -10 26 -10 10 0 19 -4 19 -10 0 -5 14 -10 30 -10
28 0 30 2 23 28 -3 15 -17 48 -30 73 -13 26 -23 50 -23 55 0 4 -14 39 -31 78
-18 39 -38 86 -46 104 -8 17 -22 77 -33 131 -21 109 -77 234 -135 297 -54 59
-133 152 -155 182 -15 21 -39 45 -53 55 -40 26 -50 52 -33 84 14 28 140 148
311 298 50 44 129 117 178 164 48 47 94 89 101 93 36 20 151 206 186 300 45
120 128 217 295 342 105 79 196 177 244 262 9 16 19 31 22 34 11 10 66 116 86
170 34 87 54 166 74 294 15 99 16 133 8 195 -6 42 -13 79 -15 82 -2 4 -31 -2
-65 -12 -69 -21 -89 -23 -89 -9 0 6 11 10 25 10 13 0 28 8 34 17 8 14 12 15
25 4 13 -11 19 -11 34 0 9 7 18 14 20 15 6 3 -37 92 -47 95 -7 3 -16 36 -22
74 -6 39 -15 79 -21 91 -6 13 -6 39 0 74 7 40 6 67 -4 107 -17 67 -17 76 0 70
17 -7 33 44 52 170 17 113 18 175 4 275 -5 40 -14 125 -20 188 -6 63 -13 131
-16 150 l-6 35 63 12 c38 7 67 8 74 3 6 -5 69 -21 140 -37 222 -47 405 -34
520 37 52 32 156 115 203 161 57 57 56 83 -4 143 -46 46 -102 77 -184 102 -25
7 -83 27 -130 44 -79 29 -95 31 -225 33 -138 2 -141 3 -210 36 -38 19 -81 42
-95 51 -14 9 -45 30 -70 46 -25 16 -70 49 -100 72 -91 72 -101 80 -195 150
-146 110 -186 141 -250 196 -82 71 -172 113 -270 128 -78 11 -82 10 -171 -20
-69 -24 -121 -34 -213 -42 -119 -10 -203 -30 -271 -65 -27 -14 -49 -16 -108
-12 -87 7 -100 14 -201 117 -85 87 -78 78 -151 180 -57 79 -154 182 -205 217
-60 41 -169 80 -261 91 -104 14 -110 14 -224 -2z m310 -291 c0 -8 -7 -15 -15
-15 -16 0 -20 12 -8 23 11 12 23 8 23 -8z m-115 -54 c-3 -6 -11 -11 -17 -11
-6 0 -6 6 2 15 14 17 26 13 15 -4z m350 -50 c3 -6 -5 -20 -19 -33 -25 -24 -42
-103 -24 -114 5 -3 18 2 29 12 19 17 19 16 19 -32 1 -27 7 -60 15 -74 20 -36
18 -43 -10 -36 -22 6 -25 3 -23 -19 1 -14 8 -25 15 -25 7 0 22 -5 32 -12 32
-20 68 4 96 64 41 87 33 123 -39 190 -33 32 -37 38 -20 38 39 0 109 -45 112
-71 2 -17 14 -29 40 -41 20 -9 56 -28 80 -43 23 -14 48 -25 55 -25 7 0 23 -7
36 -17 21 -14 22 -17 8 -28 -9 -6 -19 -23 -22 -38 -6 -22 -4 -27 10 -27 29 0
95 22 95 32 0 5 3 7 8 5 17 -11 120 17 162 43 43 27 134 70 148 70 4 0 12 -11
19 -25 13 -28 7 -62 -14 -86 -8 -9 -19 -34 -25 -55 -5 -22 -14 -41 -18 -44
-12 -9 -22 -80 -10 -80 5 0 10 5 10 10 0 6 7 10 15 10 12 0 13 -5 7 -17 -5
-10 -12 -30 -16 -45 -5 -24 -3 -28 14 -28 11 0 23 7 27 16 4 11 13 14 31 9 23
-6 24 -4 17 22 -13 50 -11 176 3 181 6 2 12 9 12 15 0 24 95 115 133 127 20 6
37 15 37 20 0 4 10 8 23 8 24 1 79 9 113 17 12 2 46 -3 75 -12 30 -10 59 -17
66 -18 6 0 15 -4 19 -8 4 -4 16 -7 26 -7 20 0 79 -27 88 -40 3 -4 34 -32 70
-61 36 -30 72 -60 80 -66 59 -50 220 -165 309 -220 56 -35 57 -37 70 -60 6
-13 18 -23 27 -23 8 0 17 -6 20 -14 3 -7 21 -22 41 -32 20 -11 45 -27 55 -37
10 -10 23 -15 27 -12 5 2 12 -2 15 -11 4 -11 14 -14 27 -11 25 7 112 -30 103
-44 -3 -5 -14 -9 -23 -7 -10 2 -24 -2 -32 -9 -8 -6 -39 -16 -69 -21 -43 -8
-63 -7 -89 4 -18 8 -42 14 -52 14 -9 0 -51 33 -91 74 -52 52 -84 76 -108 81
-19 4 -46 18 -59 31 -47 47 -97 42 -196 -20 -27 -17 -59 -37 -70 -44 -11 -7
-39 -22 -62 -34 -42 -22 -47 -30 -43 -75 1 -13 -2 -23 -6 -23 -17 0 -44 35
-44 56 0 38 -11 54 -36 54 -20 0 -24 5 -24 30 0 21 4 28 14 24 7 -3 16 2 19
10 5 11 0 16 -13 16 -11 0 -20 5 -20 11 0 8 -5 8 -15 -1 -8 -7 -13 -16 -10
-20 7 -11 -20 -61 -28 -53 -4 3 -7 -5 -7 -20 0 -14 5 -29 10 -32 17 -10 12
-35 -6 -28 -12 4 -15 -2 -13 -38 1 -24 -1 -55 -6 -68 -6 -20 -4 -23 9 -18 9 4
16 2 16 -2 0 -5 14 -14 32 -20 33 -12 87 -1 118 23 23 19 59 11 78 -15 25 -38
124 -139 135 -139 5 0 22 -11 39 -25 16 -14 38 -25 47 -25 10 0 30 -9 44 -20
14 -11 29 -20 33 -20 4 0 23 -14 41 -32 31 -30 32 -33 16 -50 -14 -16 -14 -18
0 -18 21 0 10 -38 -13 -45 -10 -3 -23 -19 -29 -35 -6 -18 -17 -30 -28 -30 -10
0 -36 -7 -58 -15 l-40 -15 70 7 c39 3 75 9 80 13 6 4 20 -4 31 -19 20 -25 21
-28 5 -46 -9 -11 -42 -37 -74 -58 -61 -40 -80 -63 -23 -28 31 20 34 20 40 4 6
-15 9 -13 25 10 10 15 20 24 23 21 11 -10 48 7 48 21 0 8 -8 19 -17 24 -17 10
-17 10 0 11 9 0 17 7 17 15 0 8 5 15 11 15 6 0 9 -7 5 -15 -4 -11 2 -15 27
-15 20 0 27 -3 19 -8 -15 -10 -5 -42 13 -42 17 0 25 -77 25 -245 0 -105 -4
-147 -15 -169 -8 -15 -15 -42 -15 -59 0 -17 -5 -80 -12 -141 -10 -90 -15 -110
-30 -114 -14 -3 -16 -10 -11 -31 17 -67 20 -66 -109 -67 -65 -1 -118 2 -118 6
0 11 -50 19 -56 9 -3 -5 -13 -5 -22 0 -10 5 -61 5 -122 0 -58 -5 -168 -9 -245
-7 -77 1 -198 -4 -270 -11 -140 -13 -213 -8 -222 15 -10 27 28 41 128 48 100
6 132 13 124 25 -2 4 -28 4 -57 0 -29 -4 -91 -7 -138 -7 -74 1 -79 2 -35 8 54
7 185 27 250 38 28 5 41 13 43 26 4 17 0 18 -39 12 -24 -4 -48 -11 -54 -17
-17 -17 -62 -9 -101 20 -50 36 -65 54 -100 121 -16 30 -30 57 -32 59 -1 3 -7
0 -13 -6 -7 -7 -5 -34 6 -87 19 -89 14 -116 -20 -116 -25 0 -45 25 -45 57 0
10 -6 30 -14 45 -13 24 -12 26 2 20 14 -5 15 -3 4 10 -10 12 -9 22 3 52 8 20
12 36 8 35 -24 -4 -45 3 -64 22 -17 17 -19 29 -15 72 3 29 8 62 12 75 9 31
-10 28 -35 -5 -11 -16 -21 -22 -21 -15 0 6 -7 12 -15 12 -8 0 -15 6 -15 14 0
11 -9 13 -37 9 -26 -4 -34 -3 -29 6 10 16 -3 51 -17 48 -7 -1 -11 6 -9 16 2
12 -4 21 -17 24 -18 5 -21 14 -23 62 0 31 0 66 1 79 2 26 -23 30 -37 6 -12
-22 -35 -8 -27 17 5 15 1 19 -19 19 -16 0 -26 -6 -26 -15 0 -18 -17 -20 -23
-2 -4 10 -7 10 -18 0 -33 -32 -115 -5 -226 72 -48 34 -77 47 -111 50 -44 5
-45 4 -15 -5 18 -6 51 -30 74 -53 34 -36 39 -47 34 -72 -3 -16 -6 -36 -7 -42
-1 -7 -5 -13 -9 -13 -4 0 -10 -13 -14 -29 -9 -41 -142 -247 -225 -348 -6 -7
-10 -15 -10 -18 0 -4 -12 -22 -26 -41 -15 -19 -21 -34 -15 -34 6 0 11 4 11 9
0 4 16 23 36 42 63 59 69 65 84 89 31 47 113 155 128 167 22 18 56 -28 47 -65
-10 -41 -72 -129 -140 -198 -81 -83 -135 -146 -135 -157 0 -5 -24 -34 -52 -64
-29 -30 -53 -62 -53 -71 0 -10 -7 -16 -16 -14 -9 1 -36 -23 -63 -58 -26 -33
-52 -60 -58 -60 -6 0 -21 -12 -34 -27 -20 -23 -27 -26 -42 -16 -10 6 -25 8
-32 3 -15 -9 -50 -2 -70 16 -9 7 -27 17 -40 22 l-25 10 28 11 c16 6 46 11 67
11 21 0 41 4 44 9 11 18 -50 27 -154 24 -94 -3 -107 -1 -136 19 -18 13 -37 32
-43 44 -5 13 -22 28 -37 36 -16 7 -38 34 -53 63 -14 28 -50 75 -79 105 -28 30
-55 62 -58 72 -3 10 -9 18 -13 18 -4 0 -13 11 -19 25 -12 25 -12 25 13 9 14
-9 25 -22 25 -29 0 -22 168 -201 178 -190 3 3 -20 30 -51 60 -55 53 -69 75
-47 75 6 0 -4 12 -20 28 -17 15 -50 44 -73 65 -22 20 -44 37 -48 37 -4 0 -17
17 -29 38 -13 21 -25 31 -27 24 -3 -6 -9 -9 -15 -6 -6 4 -5 10 3 15 19 11 -15
79 -92 186 -56 77 -106 131 -62 67 97 -141 140 -220 128 -232 -3 -3 -5 -1 -5
5 0 5 -11 23 -25 39 -14 16 -25 34 -25 41 0 7 -6 16 -13 20 -7 4 -39 51 -72
103 -32 52 -65 103 -74 113 -14 17 -14 20 4 33 10 8 24 14 30 14 7 0 20 9 29
19 18 19 17 20 -39 14 -55 -6 -57 -5 -50 15 6 20 3 22 -33 22 -26 0 -45 6 -57
20 -10 11 -31 20 -47 20 -35 0 -68 16 -68 33 0 7 30 26 68 41 37 16 109 49
159 72 51 24 105 46 120 50 16 4 40 13 56 21 23 12 27 12 27 -2 0 -21 -42
-115 -52 -115 -4 0 -8 -9 -8 -20 0 -15 -7 -20 -26 -20 -14 0 -35 -5 -47 -11
-18 -10 -24 -8 -47 18 -24 27 -80 50 -80 34 0 -6 58 -55 99 -83 14 -10 20 -18
14 -18 -7 0 -13 -4 -13 -10 0 -5 24 -10 53 -10 47 -1 87 -16 87 -34 0 -3 20
-31 45 -62 25 -30 51 -62 58 -70 6 -9 44 -48 82 -87 76 -78 130 -115 242 -165
69 -30 188 -115 206 -147 4 -8 16 -15 25 -15 17 0 82 -74 82 -92 0 -4 6 -8 13
-8 20 0 36 -78 28 -133 -5 -26 -5 -50 -1 -52 8 -5 32 60 35 99 2 17 3 37 4 44
1 6 14 12 31 12 37 0 38 12 3 38 -35 25 -27 33 33 37 64 5 75 20 14 20 -42 0
-54 4 -77 30 -30 33 -39 95 -16 102 7 3 17 22 23 42 5 21 21 55 35 75 14 20
25 41 25 46 0 14 42 82 73 119 16 19 34 47 39 63 5 15 17 28 26 28 10 0 26 13
36 27 18 25 18 26 1 20 -14 -6 -16 -5 -7 6 7 7 13 39 14 71 3 62 10 75 33 56
21 -17 18 -7 -4 19 -12 14 -17 29 -13 39 17 41 171 196 212 214 17 7 30 16 30
19 0 18 81 34 90 18 4 -6 -10 -44 -31 -84 -41 -76 -50 -125 -24 -125 8 0 31
35 54 84 22 46 60 104 83 130 36 40 47 47 68 41 14 -4 36 -20 49 -36 21 -27
22 -32 9 -47 -8 -9 -20 -31 -27 -49 -11 -27 -11 -35 2 -48 9 -8 18 -15 20 -15
10 0 15 40 6 46 -5 3 -7 10 -3 15 3 5 10 6 16 3 6 -4 9 -1 6 7 -3 8 -1 22 4
32 10 20 -18 93 -45 115 -11 9 -14 23 -10 46 3 20 1 36 -6 40 -6 4 -11 18 -11
32 0 15 -6 24 -15 24 -8 0 -15 3 -15 8 0 4 -13 13 -30 20 -18 8 -30 21 -30 33
0 10 -4 19 -9 19 -13 0 -23 50 -13 63 15 21 43 99 32 92 -5 -3 -10 -13 -10
-22 0 -34 -11 -3 -15 40 -5 69 -36 144 -63 156 -33 16 -36 14 -18 -13 8 -14
15 -44 14 -69 0 -25 3 -50 6 -56 11 -18 -24 -158 -48 -194 -28 -41 -137 -113
-200 -131 -50 -15 -71 -13 -61 5 4 5 -1 12 -10 16 -10 3 -21 0 -26 -8 -7 -11
-9 -11 -9 3 0 9 7 23 15 32 17 17 20 66 4 66 -6 0 -22 -9 -36 -20 -29 -22 -57
-27 -51 -7 3 6 14 17 25 22 12 6 28 17 37 24 14 12 19 11 36 -4 11 -10 20 -24
20 -32 0 -20 18 -16 30 8 12 22 -1 49 -25 49 -7 0 -15 6 -18 14 -8 21 -59 17
-64 -5 -4 -14 -14 -19 -39 -19 -20 0 -37 -6 -42 -16 -15 -27 -33 -8 -22 22 6
14 8 30 4 35 -3 5 3 12 13 16 10 3 26 13 36 21 15 14 17 13 17 -6 0 -27 15
-36 30 -17 10 12 8 21 -9 49 -16 26 -32 36 -68 45 -37 10 -48 9 -54 -1 -6 -9
0 -16 21 -22 39 -11 38 -33 0 -41 -16 -4 -41 -21 -54 -38 l-25 -31 -12 30 c-8
16 -23 45 -35 64 -11 19 -29 58 -40 85 -11 30 -38 69 -66 98 -46 46 -58 67
-39 67 5 0 26 16 47 35 20 19 32 35 27 35 -6 0 -22 -11 -37 -25 -15 -14 -31
-25 -36 -25 -4 0 -17 -3 -27 -7 -10 -3 3 15 30 40 26 26 52 47 57 47 6 0 10 5
10 10 0 6 -13 4 -30 -5 -16 -9 -30 -22 -30 -29 0 -8 -10 -16 -22 -20 -32 -8
-38 -7 -38 4 0 6 5 10 10 10 11 0 28 16 80 74 l25 27 -30 -15 c-16 -9 -37 -26
-47 -38 -24 -32 -32 -17 -17 32 10 34 20 46 47 57 25 10 37 11 47 3 10 -8 15
-7 19 8 4 11 31 30 64 44 58 25 58 25 92 6 25 -13 56 -18 107 -18 68 0 73 -1
95 -30 71 -94 69 -93 108 -75 19 9 42 20 50 24 8 5 17 26 21 47 6 46 24 82 53
106 23 19 52 23 61 9z m30 -81 c-3 -5 -13 -10 -21 -10 -8 0 -12 5 -9 10 3 6
13 10 21 10 8 0 12 -4 9 -10z m89 -56 c9 -23 7 -54 -3 -54 -5 0 -11 16 -13 35
-4 36 5 47 16 19z m-33 -37 c4 -16 3 -30 -3 -33 -13 -8 -28 15 -28 44 0 31 22
23 31 -11z m819 -5 c0 -5 -11 -14 -24 -20 -19 -8 -27 -8 -36 3 -9 11 -6 14 17
18 15 2 31 5 36 6 4 0 7 -3 7 -7z m-840 -74 l0 -21 24 22 c22 21 24 21 20 4
-6 -22 -41 -46 -54 -38 -13 8 -13 55 0 55 6 0 10 -10 10 -22z m1700 -416 c0
-13 -93 -75 -146 -97 -21 -10 -47 -21 -56 -26 -27 -14 -64 -11 -78 6 -17 21 5
45 73 80 77 40 95 50 114 67 29 25 56 26 76 2 9 -12 17 -27 17 -32z m112 -49
c15 -16 39 -53 54 -83 14 -30 35 -64 46 -76 22 -25 56 -109 70 -176 7 -31 16
-48 25 -48 11 0 13 7 10 23 -4 12 -9 41 -13 65 -9 55 8 55 54 1 31 -36 67 -50
65 -24 -1 6 3 15 8 22 7 8 5 10 -10 6 -23 -6 -27 7 -10 38 6 11 17 18 24 15 7
-2 19 2 25 10 7 8 22 14 34 14 12 0 28 6 34 12 10 10 15 10 22 -2 12 -19 13
-40 1 -40 -5 0 -11 6 -14 13 -3 8 -10 6 -21 -8 -8 -11 -16 -15 -16 -7 0 14
-30 17 -30 2 0 -10 11 -13 60 -13 17 0 42 1 57 2 25 1 26 2 8 15 -16 12 -17
16 -6 30 12 14 11 16 -8 16 -49 0 -4 46 52 52 20 2 37 1 37 -3 0 -9 36 -1 78
18 30 13 36 13 57 -1 15 -10 26 -12 30 -6 8 13 62 13 70 0 3 -5 18 -10 32 -10
21 0 24 -2 13 -15 -7 -8 -27 -15 -46 -15 -18 0 -36 -5 -39 -10 -5 -8 -11 -7
-21 1 -11 9 -14 8 -14 -3 0 -13 21 -15 144 -11 99 4 146 2 150 -6 5 -7 -2 -11
-18 -11 -14 0 -28 -4 -31 -10 -9 -15 48 -12 64 3 11 10 14 10 18 0 3 -7 12
-13 21 -13 22 0 52 -30 52 -53 0 -47 -105 -135 -186 -156 -23 -6 -47 -18 -54
-26 -7 -8 -20 -15 -29 -15 -9 0 -21 -4 -26 -9 -15 -14 -145 -26 -145 -13 0 11
80 46 88 38 3 -3 10 -2 16 2 6 5 37 15 70 22 32 8 63 19 70 25 6 6 24 15 39
19 15 3 27 11 27 17 0 12 -61 2 -110 -18 -19 -8 -44 -17 -55 -19 -32 -7 -157
-26 -195 -29 -19 -2 -54 -7 -77 -11 -59 -9 -54 1 10 21 28 10 59 23 67 30 8 7
29 15 45 18 17 3 68 12 114 20 46 8 86 19 90 24 3 6 32 13 63 17 32 4 60 12
63 17 4 5 1 9 -6 9 -9 0 -9 3 0 14 10 12 8 13 -11 9 -13 -3 -28 -10 -35 -15
-6 -5 -70 -9 -142 -10 -88 -1 -134 -5 -139 -12 -10 -16 -86 -38 -106 -30 -17
7 -22 29 -7 38 5 3 37 12 72 20 35 8 91 21 124 30 33 8 77 15 98 16 24 0 36 4
32 10 -4 6 -23 8 -43 6 -71 -9 -207 -37 -227 -46 -11 -5 -42 -15 -69 -23 -53
-15 -74 -37 -35 -37 37 0 13 -12 -33 -16 -24 -3 -69 -13 -100 -24 -62 -21
-190 -39 -250 -34 -42 3 -98 29 -98 45 0 6 -4 7 -10 4 -5 -3 -10 -2 -10 2 0 5
9 14 20 21 11 7 20 17 20 22 0 15 -124 12 -138 -2 -10 -10 -15 -10 -21 1 -7
10 -12 8 -24 -10 -22 -31 -30 -20 -12 15 18 33 19 39 5 31 -21 -13 -9 9 17 31
29 25 98 40 132 29 26 -8 28 6 2 22 -27 17 -94 9 -136 -16 -20 -11 -40 -21
-44 -21 -9 0 -54 60 -48 66 8 9 172 25 194 19 33 -8 28 11 -7 29 -25 12 -42
13 -93 5 -34 -6 -66 -14 -71 -20 -6 -5 -17 -9 -26 -9 -9 0 -25 -9 -35 -20 -19
-21 -45 -27 -45 -11 0 5 8 12 18 16 26 9 87 64 79 71 -4 4 -27 -12 -52 -35
-39 -36 -65 -51 -65 -36 0 22 29 54 63 69 68 29 71 30 63 18 -9 -15 -4 -15 29
0 14 6 25 19 25 28 0 13 6 16 25 12 25 -4 35 12 13 22 -20 8 21 36 52 36 16 0
37 -11 52 -27z m191 -154 c-30 -12 -42 -10 -52 9 -9 18 -7 18 30 8 31 -8 36
-12 22 -17z m-3565 -21 c7 -7 12 -19 12 -27 0 -9 7 -29 16 -46 12 -24 13 -34
3 -52 -7 -13 -21 -23 -31 -23 -20 0 -68 69 -68 99 0 11 -6 22 -12 25 -7 3 -2
3 11 0 21 -5 23 -3 18 15 -4 17 -1 21 17 21 12 0 27 -5 34 -12z m288 -30 c14
-28 14 -32 0 -47 -15 -14 -19 -14 -44 -1 -32 19 -41 58 -17 76 23 17 43 8 61
-28z m3354 -18 c0 -5 -7 -10 -15 -10 -8 0 -15 5 -15 10 0 6 7 10 15 10 8 0 15
-4 15 -10z m-3743 -22 c33 -36 65 -107 58 -129 -4 -11 -15 -19 -28 -19 -28 0
-39 9 -53 40 -6 14 -17 37 -24 53 -11 22 -11 31 0 52 16 31 21 31 47 3z m-105
-35 c31 -36 70 -114 64 -128 -3 -9 -18 -15 -34 -15 -24 0 -32 6 -42 31 -7 17
-20 37 -28 45 -10 10 -12 25 -8 49 8 38 25 45 48 18z m366 -1 c4 -12 -59 -56
-97 -67 -22 -7 -23 -5 -17 21 9 36 7 33 53 49 42 15 55 15 61 -3z m-467 -28
c9 -3 26 -23 38 -44 21 -38 21 -39 2 -49 -13 -7 -28 -7 -50 0 -43 15 -56 8
-31 -18 l20 -22 -21 -11 c-25 -14 -26 -14 -34 33 -7 34 -5 37 15 37 28 0 21
24 -8 28 -25 4 -27 12 -9 34 14 18 38 28 52 22 6 -2 17 -7 26 -10z m1639 -10
c0 -3 -16 -24 -35 -47 -19 -22 -35 -48 -35 -56 0 -9 -10 -22 -21 -30 -19 -11
-21 -11 -15 4 3 9 6 20 6 25 0 5 6 15 13 22 7 7 23 30 36 51 12 20 29 37 37
37 8 0 14 -3 14 -6z m2084 -110 c17 -16 22 -44 8 -44 -14 0 -53 46 -45 53 10
11 20 8 37 -9z m-3624 -24 c20 -12 9 -20 -70 -55 -36 -15 -116 -52 -178 -83
-105 -50 -116 -53 -139 -41 -14 8 -28 20 -31 28 -7 20 26 41 64 41 27 0 145
50 219 92 42 24 111 33 135 18z m4248 -57 c5 -17 -23 -16 -37 1 -9 10 -7 13
11 12 12 0 23 -7 26 -13z m-668 -13 c0 -5 -4 -10 -10 -10 -5 0 -10 5 -10 10 0
6 5 10 10 10 6 0 10 -4 10 -10z m-1335 -740 c3 -5 -1 -10 -10 -10 -9 0 -13 5
-10 10 3 6 8 10 10 10 2 0 7 -4 10 -10z m163 -317 c2 -9 -7 -13 -27 -13 -30 0
-39 9 -24 24 11 10 46 3 51 -11z m-1135 -48 c-3 -9 -8 -14 -10 -11 -3 3 -2 9
2 15 9 16 15 13 8 -4z m1952 -25 c3 -5 1 -10 -4 -10 -6 0 -11 5 -11 10 0 6 2
10 4 10 3 0 8 -4 11 -10z m-2278 -6 c-3 -3 -12 -4 -19 -1 -8 3 -5 6 6 6 11 1
17 -2 13 -5z m2468 -54 c-3 -5 -10 -10 -16 -10 -5 0 -9 5 -9 10 0 6 7 10 16
10 8 0 12 -4 9 -10z m-425 -99 c0 -5 -13 -14 -30 -20 -32 -11 -41 2 -12 18 21
13 42 14 42 2z m-28 -53 c-7 -7 -12 -8 -12 -2 0 6 3 14 7 17 3 4 9 5 12 2 2
-3 -1 -11 -7 -17z m648 -33 c0 -8 -2 -15 -4 -15 -2 0 -6 7 -10 15 -3 8 -1 15
4 15 6 0 10 -7 10 -15z m-36 -35 c-12 -5 -25 -13 -29 -19 -3 -6 -11 -8 -17 -5
-12 8 29 33 52 33 9 0 6 -4 -6 -9z m-2961 -168 c3 -4 3 -19 0 -34 -4 -23 -8
-26 -24 -17 -23 12 -24 6 -3 -16 22 -22 8 -35 -44 -42 l-41 -6 6 39 c7 49 21
66 44 59 13 -4 19 -1 19 9 0 16 35 23 43 8z m-165 -123 c2 -12 -13 -20 -60
-32 -65 -16 -91 -10 -69 17 13 15 83 36 111 32 8 0 16 -8 18 -17z m1989 -21
c-8 -12 -17 -37 -20 -54 -3 -17 -17 -56 -31 -87 -15 -31 -26 -73 -26 -94 -1
-52 -22 -131 -45 -170 -33 -54 -36 -37 -9 35 15 37 27 78 29 92 9 98 50 230
88 282 24 33 35 30 14 -4z m695 -45 c-13 -24 -52 -59 -52 -47 0 11 53 74 58
69 2 -2 -1 -12 -6 -22z m-65 -118 c13 -14 13 -19 -3 -53 -13 -26 -19 -32 -22
-20 -2 9 2 27 9 39 9 17 9 24 0 27 -11 4 -16 22 -5 22 3 0 12 -7 21 -15z
m-3776 -180 c26 -25 53 -45 60 -45 11 0 207 -97 434 -214 116 -61 175 -100
175 -118 0 -26 -86 9 -391 160 -178 88 -332 163 -341 166 -13 4 -18 16 -18 44
0 67 16 68 81 7z m1259 -35 c0 -5 -4 -10 -10 -10 -5 0 -10 5 -10 10 0 6 5 10
10 10 6 0 10 -4 10 -10z m2056 -187 c-10 -10 -19 5 -10 18 6 11 8 11 12 0 2
-7 1 -15 -2 -18z m-2513 -164 c15 -23 -10 -79 -34 -79 -24 0 -42 35 -33 63 12
39 47 48 67 16z m470 -36 c-7 -2 -21 -2 -30 0 -10 3 -4 5 12 5 17 0 24 -2 18
-5z m2202 -22 c3 -5 1 -12 -5 -16 -5 -3 -10 1 -10 9 0 18 6 21 15 7z m-876
-144 c74 -42 74 -35 11 -161 -92 -185 -131 -239 -153 -217 -11 11 6 57 28 74
6 4 5 10 -3 16 -11 6 -13 29 -9 92 3 46 8 92 12 102 4 9 4 24 1 33 -4 9 -1 23
5 30 6 8 9 21 5 30 -3 8 -1 24 5 35 10 19 12 20 36 3 15 -9 42 -26 62 -37z
m791 -66 c0 -6 -4 -13 -10 -16 -5 -3 -10 1 -10 9 0 9 5 16 10 16 6 0 10 -4 10
-9z m53 -6 c-3 -9 -8 -14 -10 -11 -3 3 -2 9 2 15 9 16 15 13 8 -4z m-578 -45
c-3 -5 -11 -10 -16 -10 -6 0 -7 5 -4 10 3 6 11 10 16 10 6 0 7 -4 4 -10z m515
-20 c0 -5 -5 -10 -11 -10 -5 0 -7 5 -4 10 3 6 8 10 11 10 2 0 4 -4 4 -10z m-8
-92 c-7 -7 -12 -8 -12 -2 0 14 12 26 19 19 2 -3 -1 -11 -7 -17z m-614 -48
c-14 -22 -24 -19 -15 5 4 8 11 15 17 15 6 0 6 -7 -2 -20z m-21 -102 c-3 -8 -6
-5 -6 6 -1 11 2 17 5 13 3 -3 4 -12 1 -19z m-27 -12 c0 -8 -8 -24 -18 -36 -14
-17 -23 -21 -35 -14 -15 9 -14 13 9 37 27 30 44 35 44 13z m-1390 -105 c0 -13
-27 -21 -71 -21 -38 0 -52 13 -26 23 21 9 97 7 97 -2z m1980 -26 c-7 -9 -15
-13 -18 -10 -3 2 1 11 8 20 7 9 15 13 18 10 3 -2 -1 -11 -8 -20z m-1982 -21
c-18 -18 -86 -25 -90 -9 -2 6 17 13 42 16 25 3 49 7 55 7 5 1 2 -5 -7 -14z
m-3 -34 c-17 -7 -17 -9 -2 -9 10 -1 17 -9 17 -20 0 -15 -10 -20 -45 -25 -52
-8 -69 -1 -62 25 3 11 0 20 -6 21 -14 1 67 15 98 16 l20 1 -20 -9z m1925 -4
c0 -3 -4 -8 -10 -11 -5 -3 -10 -1 -10 4 0 6 5 11 10 11 6 0 10 -2 10 -4z m-30
-36 c0 -5 -8 -10 -17 -10 -15 0 -16 2 -3 10 19 12 20 12 20 0z m-1900 -80 c0
-12 -7 -20 -16 -20 -11 0 -15 -9 -13 -32 4 -69 -1 -168 -10 -168 -9 0 -21 216
-13 233 2 4 14 7 28 7 17 0 24 -5 24 -20z m1104 -22 c-14 -76 -25 -108 -39
-108 -25 0 -20 89 7 117 30 32 39 29 32 -9z m-1137 -294 c-9 -9 -28 6 -21 18
4 6 10 6 17 -1 6 -6 8 -13 4 -17z m1953 -365 c0 -11 -4 -17 -10 -14 -5 3 -10
15 -10 26 0 11 5 17 10 14 6 -3 10 -15 10 -26z m-156 -1 c-4 -6 -10 -28 -14
-49 l-7 -38 29 15 c18 10 31 25 35 44 6 35 19 39 28 10 3 -11 11 -20 17 -20 7
0 9 -17 6 -45 -5 -39 -3 -44 9 -34 7 7 12 18 9 26 -7 18 14 16 36 -4 17 -15
18 -15 18 6 0 12 -4 19 -10 16 -16 -10 -12 0 10 25 18 21 33 21 36 2 0 -4 3
-14 7 -22 18 -47 25 -92 23 -143 -2 -47 0 -57 12 -52 10 4 12 1 7 -12 -5 -10
-8 -28 -8 -40 1 -22 -20 -32 -30 -15 -2 4 -2 0 1 -8 3 -8 7 -27 10 -42 3 -21
10 -28 28 -28 12 0 26 -4 29 -10 3 -5 15 -10 26 -10 16 0 19 -8 21 -47 2 -75
-2 -97 -20 -111 -9 -7 -23 -10 -32 -6 -19 8 -31 8 -50 0 -10 -4 -19 2 -25 16
-6 13 -17 22 -27 20 -29 -5 -31 18 -2 28 18 7 30 7 40 -1 7 -6 18 -8 24 -4 14
9 12 25 -3 19 -15 -5 -57 31 -57 49 0 7 -14 23 -31 37 -18 14 -39 33 -48 44
-9 10 -31 35 -49 55 -18 20 -35 47 -38 61 -3 14 -12 46 -20 72 -8 26 -14 57
-14 70 0 13 -4 30 -10 38 -5 8 -5 19 -1 25 5 5 12 25 16 43 3 17 11 32 16 32
6 0 7 -5 3 -12z m-244 -62 c0 -2 -7 -9 -15 -16 -13 -11 -14 -10 -9 4 5 14 24
23 24 12z m605 -526 c3 -5 1 -10 -4 -10 -6 0 -11 5 -11 10 0 6 2 10 4 10 3 0
8 -4 11 -10z"/>
<path d="M3720 6422 c0 -10 -5 -23 -11 -29 -9 -9 -6 -10 10 -6 26 7 33 16 25
37 -8 22 -24 20 -24 -2z"/>
<path d="M3285 6313 c-17 -8 -55 -23 -85 -32 -36 -11 -56 -23 -58 -35 -5 -24
26 -56 55 -56 16 0 27 -8 33 -26 9 -22 14 -25 39 -19 21 4 35 0 57 -18 27 -23
72 -33 127 -28 21 1 23 21 2 21 -8 0 -15 5 -15 10 0 6 -9 10 -21 10 -11 0 -18
4 -14 9 3 5 1 12 -5 16 -17 11 -11 23 15 29 14 4 23 11 20 16 -4 6 -18 4 -36
-6 -34 -17 -45 -14 -35 12 5 13 15 16 52 11 38 -4 50 -1 75 20 16 14 28 27 25
30 -2 2 -33 -2 -68 -11 -34 -8 -87 -17 -117 -20 -29 -3 -59 -11 -67 -17 -9 -7
-14 -8 -14 -1 0 23 67 52 121 53 30 0 63 4 74 9 18 7 18 9 3 15 -10 4 -23 5
-30 2 -7 -2 -22 -1 -33 3 -50 18 -72 19 -100 3z"/>
<path d="M3676 6291 c-4 -7 -5 -15 -2 -18 9 -9 19 4 14 18 -4 11 -6 11 -12 0z"/>
<path d="M4405 6082 c-22 -21 -72 -76 -112 -123 -40 -46 -83 -94 -97 -106 -20
-20 -33 -54 -42 -113 -1 -8 -9 -37 -18 -64 -16 -51 -12 -70 19 -96 8 -7 18
-10 22 -7 3 4 10 57 15 119 9 121 22 149 74 162 13 4 48 37 77 74 30 37 77 91
106 121 28 29 50 55 49 56 -2 2 -14 6 -28 10 -20 5 -33 -2 -65 -33z"/>
<path d="M4165 5521 c-3 -5 -1 -12 5 -16 5 -3 10 1 10 9 0 18 -6 21 -15 7z"/>
<path d="M4277 5343 c-12 -11 -8 -71 6 -76 9 -4 9 -6 -1 -6 -10 -1 -10 -6 2
-23 9 -12 16 -35 16 -50 0 -16 4 -28 8 -28 5 0 16 -18 26 -39 16 -38 117 -148
167 -183 l24 -17 -32 -31 c-39 -37 -43 -78 -13 -128 11 -18 20 -42 20 -53 0
-29 24 -18 28 12 2 13 -8 46 -22 72 -18 33 -21 47 -12 47 7 0 21 9 30 19 10
11 28 22 42 25 13 4 24 11 24 18 0 6 8 17 18 24 16 13 16 15 -7 34 -13 11 -35
23 -50 27 -26 6 -83 42 -89 56 -2 4 -12 7 -22 7 -17 0 -38 17 -39 33 0 4 -7
20 -14 35 -8 15 -18 41 -22 57 -5 17 -10 35 -11 40 -2 6 -10 35 -17 65 -9 35
-19 55 -28 55 -8 0 -17 3 -20 8 -3 4 -8 4 -12 0z"/>
<path d="M5560 5310 c-8 -5 -10 -10 -5 -10 6 0 17 5 25 10 8 5 11 10 5 10 -5
0 -17 -5 -25 -10z"/>
<path d="M4670 5279 c0 -28 2 -30 33 -27 27 2 33 8 35 31 3 25 1 27 -32 27
-33 0 -36 -2 -36 -31z"/>
<path d="M2122 5258 c7 -19 35 -21 41 -3 5 11 0 15 -19 15 -16 0 -24 -5 -22
-12z"/>
<path d="M3520 5229 c0 -16 4 -28 9 -25 8 5 3 56 -5 56 -2 0 -4 -14 -4 -31z"/>
<path d="M5440 5210 c0 -5 5 -10 11 -10 5 0 7 5 4 10 -3 6 -8 10 -11 10 -2 0
-4 -4 -4 -10z"/>
<path d="M5338 5113 c7 -3 16 -2 19 1 4 3 -2 6 -13 5 -11 0 -14 -3 -6 -6z"/>
<path d="M5455 5110 c-19 -8 -19 -9 3 -9 12 -1 22 4 22 9 0 6 -1 10 -2 9 -2 0
-12 -4 -23 -9z"/>
<path d="M5762 5090 c0 -14 2 -19 5 -12 2 6 2 18 0 25 -3 6 -5 1 -5 -13z"/>
<path d="M5360 5090 c0 -5 9 -10 19 -10 11 0 23 5 26 10 4 6 -5 10 -19 10 -14
0 -26 -4 -26 -10z"/>
<path d="M2440 5064 c0 -4 16 -24 35 -45 58 -65 45 -74 -22 -15 -13 11 -23 15
-23 9 0 -5 9 -18 20 -28 11 -10 22 -26 25 -36 4 -11 10 -17 15 -14 16 10 38
-6 50 -36 12 -29 37 -43 26 -14 -11 30 17 14 70 -41 31 -31 58 -53 61 -50 3 3
-13 25 -35 48 -23 24 -78 80 -122 126 -44 46 -80 88 -80 93 0 5 -4 9 -10 9 -5
0 -10 -3 -10 -6z"/>
<path d="M5600 5047 c0 -19 -63 -116 -80 -122 -16 -5 -54 -65 -46 -72 5 -5
124 137 143 171 16 28 16 36 -2 36 -8 0 -15 -6 -15 -13z"/>
<path d="M5702 4953 c-13 -36 -25 -117 -13 -88 17 38 34 105 29 110 -3 3 -10
-7 -16 -22z"/>
<path d="M5595 4840 c-4 -11 -17 -28 -31 -36 -13 -9 -24 -22 -24 -30 0 -7 -9
-18 -21 -24 -11 -7 -18 -14 -16 -17 10 -9 35 12 76 64 23 28 37 54 32 57 -5 4
-12 -3 -16 -14z"/>
<path d="M5519 4793 c-13 -16 -12 -17 4 -4 9 7 17 15 17 17 0 8 -8 3 -21 -13z"/>
<path d="M2710 4765 c7 -8 17 -15 22 -15 6 0 5 7 -2 15 -7 8 -17 15 -22 15 -6
0 -5 -7 2 -15z"/>
<path d="M2745 4730 c3 -5 8 -10 11 -10 2 0 4 5 4 10 0 6 -5 10 -11 10 -5 0
-7 -4 -4 -10z"/>
<path d="M2784 4682 c8 -16 22 -35 32 -43 15 -13 16 -12 9 11 -8 28 -33 60
-47 60 -5 0 -2 -13 6 -28z"/>
<path d="M2710 4531 c0 -6 4 -13 10 -16 6 -3 7 1 4 9 -7 18 -14 21 -14 7z"/>
<path d="M3086 4501 c-4 -7 -5 -15 -2 -18 9 -9 19 4 14 18 -4 11 -6 11 -12 0z"/>
<path d="M5033 4495 c-9 -10 -7 -21 8 -50 24 -44 18 -68 -22 -88 l-31 -14 37
-7 c20 -4 38 -6 40 -4 1 2 10 18 19 36 19 36 14 65 -14 97 -10 11 -19 25 -21
32 -3 8 -7 7 -16 -2z"/>
<path d="M5644 4405 c-14 -21 -15 -28 -4 -38 10 -9 11 -9 6 1 -4 6 -3 12 1 12
5 0 14 9 20 20 19 30 -3 35 -23 5z"/>
<path d="M6020 5591 c0 -5 5 -13 10 -16 6 -3 10 -2 10 4 0 5 -4 13 -10 16 -5
3 -10 2 -10 -4z"/>
<path d="M6050 5596 c0 -2 7 -7 16 -10 8 -3 12 -2 9 4 -6 10 -25 14 -25 6z"/>
<path d="M6698 5533 c-10 -2 -18 -11 -18 -19 0 -12 3 -12 20 -2 11 7 20 16 20
20 0 5 -1 7 -2 7 -2 -1 -11 -3 -20 -6z"/>
<path d="M4510 1250 c-9 -16 -8 -18 5 -14 8 4 15 12 15 20 0 20 -7 17 -20 -6z"/>
<path d="M4650 1171 c-12 -24 -13 -51 -1 -51 7 0 31 51 31 66 0 12 -21 1 -30
-15z"/>
<path d="M4675 889 c-4 -6 -5 -13 -2 -16 7 -7 27 6 27 18 0 12 -17 12 -25 -2z"/>
<path d="M4750 866 c0 -8 5 -18 10 -21 6 -3 10 1 10 9 0 8 -4 18 -10 21 -5 3
-10 -1 -10 -9z"/>
<path d="M4400 2549 c-17 -31 -7 -33 20 -4 19 20 20 25 7 25 -9 0 -21 -9 -27
-21z"/>
<path d="M4280 2544 c0 -8 5 -12 10 -9 6 3 10 10 10 16 0 5 -4 9 -10 9 -5 0
-10 -7 -10 -16z"/>
<path d="M4246 2504 c-9 -24 -2 -26 12 -4 7 11 8 20 3 20 -5 0 -12 -7 -15 -16z"/>
<path d="M4313 2442 c-13 -15 -23 -34 -23 -42 1 -15 59 47 60 63 0 15 -16 6
-37 -21z"/>
<path d="M4022 2198 c-7 -7 -12 -21 -12 -31 0 -17 2 -17 20 6 11 14 20 28 20
31 0 10 -15 7 -28 -6z"/>
<path d="M4017 2133 c-4 -3 -7 -11 -7 -17 0 -6 5 -5 12 2 6 6 9 14 7 17 -3 3
-9 2 -12 -2z"/>
<path d="M3950 2068 c0 -20 1 -21 20 -3 11 10 20 20 20 22 0 1 -9 3 -20 3 -14
0 -20 -7 -20 -22z"/>
<path d="M4042 1276 c-24 -52 -27 -82 -12 -106 8 -12 10 -11 10 8 0 13 7 37
16 53 8 17 14 45 12 62 l-3 32 -23 -49z"/>
<path d="M3650 980 c0 -5 5 -10 10 -10 6 0 10 5 10 10 0 6 -4 10 -10 10 -5 0
-10 -4 -10 -10z"/>
<path d="M4069 913 c-1 -5 -1 -12 0 -16 1 -4 -3 -16 -9 -27 -5 -10 -6 -21 -2
-24 5 -3 13 13 19 35 5 21 6 39 2 39 -5 0 -10 -3 -10 -7z"/>
<path d="M2678 833 c6 -2 18 -2 25 0 6 3 1 5 -13 5 -14 0 -19 -2 -12 -5z"/>
<path d="M4087 785 c-22 -47 -22 -48 8 -21 14 13 25 31 25 40 0 27 -15 18 -33
-19z"/>
</g>
</svg>
