<svg width="44" height="65" viewBox="0 0 44 65" fill="none" xmlns="http://www.w3.org/2000/svg">
<path d="M30 63C30 64.1046 26.4183 65 22 65C17.5817 65 14 64.1046 14 63C14 61.8954 17.5817 61 22 61C26.4183 61 30 61.8954 30 63Z" fill="#E3E5EA"/>
<path d="M44 22.3341C44 34.396 24.5385 63.4941 22 63.4941C19.4615 63.4941 0 34.396 0 22.3341C0 10.2722 9.84974 0.494141 22 0.494141C34.1503 0.494141 44 10.2722 44 22.3341Z" fill="#E3E5EA"/>
<path d="M31 22.4941C31 27.4647 26.9706 31.4941 22 31.4941C17.0294 31.4941 13 27.4647 13 22.4941C13 17.5236 17.0294 13.4941 22 13.4941C26.9706 13.4941 31 17.5236 31 22.4941Z" fill="#E3E5EA"/>
</svg>
